<?xml version="1.0" encoding="UTF-8"?>
<svg version="1.1" xmlns="http://www.w3.org/2000/svg" width="500" height="500">
<path d="M0 0 C1.93517235 -0.002062 1.93517235 -0.002062 3.90943909 -0.00416565 C5.34729027 -0.00062626 6.78514122 0.00300856 8.22299194 0.00672913 C9.73065692 0.00701107 11.23832204 0.00685312 12.74598694 0.00628662 C16.84698934 0.00599892 20.94796267 0.01189119 25.0489583 0.01886058 C29.33177068 0.02509871 33.61458368 0.02569828 37.8973999 0.02688599 C46.01113785 0.02999794 54.12486238 0.03820951 62.23859441 0.04823548 C71.47425525 0.05940081 80.70991672 0.06490813 89.94558263 0.06993091 C108.94740247 0.08039223 127.9492098 0.09798906 146.95101929 0.12025452 C146.07601929 4.87025452 146.07601929 4.87025452 144.95101929 7.12025452 C144.29101929 7.12025452 143.63101929 7.12025452 142.95101929 7.12025452 C142.69836304 7.98263733 142.44570679 8.84502014 142.18539429 9.73353577 C140.88739274 13.29482482 139.24419693 16.12023901 137.20101929 19.30775452 C133.96164592 24.41986748 130.98900398 29.61203232 128.17758179 34.97572327 C126.95101929 37.12025452 126.95101929 37.12025452 124.95101929 39.12025452 C123.0417366 39.31772137 123.0417366 39.31772137 120.66665649 39.24395752 C119.31716667 39.21084473 119.31716667 39.21084473 117.94041443 39.17706299 C116.95036911 39.14308914 115.96032379 39.1091153 114.9402771 39.07411194 C112.78179088 39.01833429 110.62328116 38.96346114 108.4647522 38.90936279 C106.7403529 38.86211343 106.7403529 38.86211343 104.98111725 38.81390953 C97.61421969 38.63228692 90.24514623 38.56940588 82.87662125 38.48398876 C76.40391376 38.40212635 69.93698792 38.27949793 63.46713257 38.06776428 C57.20644684 37.86520477 50.95310181 37.77692044 44.68926239 37.76377296 C42.31086769 37.73861821 39.9325201 37.67282744 37.55646515 37.56439781 C26.45087211 37.01497318 26.45087211 37.01497318 15.95101929 40.12025452 C10.05165181 45.74769428 6.6003639 53.03016871 3.25341034 60.35941505 C1.47947563 64.11984396 -0.66598265 67.57434054 -2.92398071 71.05775452 C-3.54015259 72.05677795 -4.15632446 73.05580139 -4.79116821 74.08509827 C-5.20624634 74.75669983 -5.62132446 75.42830139 -6.04898071 76.12025452 C-4.49828196 77.67095327 -3.02591128 77.26079427 -0.86659241 77.2784729 C0.03509674 77.28826172 0.93678589 77.29805054 1.86579895 77.30813599 C2.8627327 77.31389145 3.85966644 77.31964691 4.8868103 77.32557678 C5.93058838 77.33547638 6.97436646 77.34537598 8.04977417 77.35557556 C11.51813447 77.38729706 14.98650849 77.41198992 18.45492554 77.43666077 C20.8524665 77.45722111 23.25000376 77.47821732 25.64753723 77.49963379 C31.97193412 77.5549495 38.29636423 77.60431674 44.62081909 77.65248108 C51.06880669 77.70262693 57.51674577 77.75834901 63.96469116 77.81361389 C76.62675885 77.92131158 89.28886791 78.02291978 101.95101929 78.12025452 C101.09629853 81.93892629 99.55735232 84.79022714 97.57601929 88.18275452 C97.23167847 88.77475647 96.88733765 89.36675842 96.53256226 89.97669983 C95.76749743 91.29198022 95.00063188 92.6062143 94.23226929 93.91957092 C92.82438835 96.33775666 91.43363921 98.7653215 90.04476929 101.19447327 C89.05530283 102.91980071 88.06572052 104.64506173 87.07601929 106.37025452 C86.59987183 107.20435852 86.12372437 108.03846252 85.63314819 108.89784241 C85.18374878 109.67764465 84.73434937 110.4574469 84.27133179 111.26087952 C83.67215942 112.30550354 83.67215942 112.30550354 83.06088257 113.37123108 C81.95101929 115.12025452 81.95101929 115.12025452 79.95101929 117.12025452 C77.54175695 117.30791224 75.24853532 117.37226432 72.83920288 117.3473053 C71.74148811 117.34774338 71.74148811 117.34774338 70.62159729 117.34819031 C68.19743075 117.34679453 65.77356978 117.33122192 63.34945679 117.31556702 C61.67079842 117.31183776 59.99213788 117.30899038 58.31347656 117.30699158 C53.89110322 117.2993482 49.46886084 117.27969373 45.04653931 117.25758362 C40.53555066 117.23714031 36.02454089 117.22799311 31.51351929 117.21791077 C22.65929502 117.19644846 13.80516803 117.16230407 4.95101929 117.12025452 C5.9043748 118.87570546 6.85865552 120.63065396 7.81332397 122.38539124 C8.34463928 123.36273224 8.87595459 124.34007324 9.42337036 125.34703064 C11.27089647 128.7009449 13.21195864 131.97317383 15.20101929 135.24525452 C15.97637842 136.52743215 16.7510925 137.81000003 17.52523804 139.09291077 C17.92146362 139.74920471 18.31768921 140.40549866 18.72592163 141.0816803 C20.84226688 144.60329904 22.92976782 148.1417782 25.01351929 151.68275452 C25.42964478 152.3895636 25.84577026 153.09637268 26.27450562 153.82460022 C29.66653951 159.60241553 32.9791656 165.42298688 36.25961304 171.26478577 C37.83697927 174.08321339 37.83697927 174.08321339 39.67367554 176.25697327 C40.95101929 178.12025452 40.95101929 178.12025452 40.95101929 182.12025452 C35.02450872 182.14495306 29.09802804 182.16311382 23.17147827 182.17518616 C21.1548714 182.18021834 19.13826818 182.18704466 17.12167358 182.19569397 C14.2249359 182.20780825 11.32824641 182.21349395 8.43148804 182.21791077 C7.52827316 182.22307205 6.62505829 182.22823334 5.69447327 182.23355103 C4.43350578 182.23366432 4.43350578 182.23366432 3.14706421 182.23377991 C2.03786873 182.23711082 2.03786873 182.23711082 0.90626526 182.24050903 C-1.04898071 182.12025452 -1.04898071 182.12025452 -4.04898071 181.12025452 C-5.55995585 178.55725921 -6.91681082 176.02923987 -8.23648071 173.37025452 C-11.82178815 166.37632383 -15.685199 159.67490452 -19.86685181 153.01673889 C-26.16005066 142.92058674 -32.36390414 132.825605 -37.50601196 122.08900452 C-39.79952823 117.6761631 -42.48400805 113.53117937 -45.15567017 109.33998108 C-48.63178615 103.86230668 -51.83920494 98.26597322 -54.98550415 92.59388733 C-57.53422023 88.00619838 -60.20076345 83.53039738 -63.04898071 79.12025452 C-63.54526978 80.00326233 -64.04155884 80.88627014 -64.55288696 81.79603577 C-67.79773378 87.5376611 -71.06065587 93.22422349 -74.67398071 98.74525452 C-77.62574449 103.30586251 -80.01629577 107.99906443 -82.38491821 112.88197327 C-84.62705487 117.24519225 -87.15920987 121.40399699 -89.71231079 125.59022522 C-93.00746517 131.003944 -96.08024022 136.52039501 -99.04898071 142.12025452 C-95.74898071 142.45025452 -92.44898071 142.78025452 -89.04898071 143.12025452 C-88.78182251 142.24336975 -88.51466431 141.36648499 -88.2394104 140.46302795 C-87.09275581 137.24317673 -85.73711443 134.57260787 -84.00210571 131.63587952 C-83.40398071 130.61752014 -82.80585571 129.59916077 -82.18960571 128.54994202 C-81.56569946 127.50064514 -80.94179321 126.45134827 -80.29898071 125.37025452 C-79.69054321 124.33642639 -79.08210571 123.30259827 -78.45523071 122.23744202 C-74.68718291 115.84464296 -70.87417166 109.47897757 -67.04898071 103.12025452 C-66.04880879 101.45369102 -65.04876465 99.7870508 -64.04898071 98.12025452 C-60.40204007 101.52921483 -57.82750364 104.80917454 -55.38491821 109.15541077 C-54.41425415 110.86374084 -54.41425415 110.86374084 -53.42398071 112.60658264 C-52.75686894 113.7983909 -52.09020624 114.99045062 -51.42398071 116.18275452 C-50.10231322 118.53001818 -48.77532318 120.8741585 -47.44741821 123.21791077 C-46.57609253 124.77264099 -46.57609253 124.77264099 -45.68716431 126.35877991 C-44.14623697 129.09659708 -44.14623697 129.09659708 -42.33462524 131.286026 C-41.04898071 133.12025452 -41.04898071 133.12025452 -41.08023071 136.37025452 C-42.24068356 140.86233007 -44.10771718 144.21332449 -46.54898071 148.12025452 C-46.99169312 148.85066956 -47.43440552 149.58108459 -47.89053345 150.33363342 C-49.26693747 152.60194725 -50.65784935 154.86095142 -52.04898071 157.12025452 C-53.34396008 159.25032289 -54.63396172 161.38325954 -55.92007446 163.51869202 C-56.69856095 164.81021386 -57.48095306 166.09939173 -58.26773071 167.38587952 C-59.82470475 169.95232024 -61.09565434 172.26027541 -62.04898071 175.12025452 C-62.70898071 175.12025452 -63.36898071 175.12025452 -64.04898071 175.12025452 C-64.17273071 175.71837952 -64.29648071 176.31650452 -64.42398071 176.93275452 C-65.04898071 179.12025452 -65.04898071 179.12025452 -67.04898071 182.12025452 C-68.84119606 182.489398 -68.84119606 182.489398 -71.0479126 182.48101807 C-72.30153847 182.48720406 -72.30153847 182.48720406 -73.58049011 182.49351501 C-74.49902267 182.48272919 -75.41755524 182.47194336 -76.36392212 182.46083069 C-77.32981766 182.46126877 -78.2957132 182.46170685 -79.2908783 182.4621582 C-82.49430317 182.46006252 -85.69720939 182.43669459 -88.90054321 182.41322327 C-91.11728632 182.40763009 -93.33403312 182.40335868 -95.55078125 182.40036011 C-101.39360744 182.38888946 -107.23621095 182.35940312 -113.07894897 182.32624817 C-119.03767891 182.29559512 -124.99644471 182.28186497 -130.95523071 182.26673889 C-142.65324538 182.2345356 -154.35109455 182.18331243 -166.04898071 182.12025452 C-167.13720703 178.35536194 -167.13720703 178.35536194 -166.34317017 176.23939514 C-165.95347046 175.59164124 -165.56377075 174.94388733 -165.16226196 174.27650452 C-164.72422241 173.53464905 -164.28618286 172.79279358 -163.83486938 172.02845764 C-163.34865112 171.23375061 -162.86243286 170.43904358 -162.36148071 169.62025452 C-161.86688354 168.78945374 -161.37228638 167.95865295 -160.86270142 167.10267639 C-159.27040901 164.43428114 -157.66083001 161.77687434 -156.04898071 159.12025452 C-154.98302854 157.34993151 -153.91791611 155.57910259 -152.85366821 153.80775452 C-151.2974798 151.21766176 -149.74100727 148.62776373 -148.18106079 146.03993225 C-145.23462995 141.14140078 -142.39888601 136.20990281 -139.70523071 131.16712952 C-133.13692895 119.08393287 -126.12613784 107.23495855 -119.17398071 95.37025452 C-113.72702903 86.06874542 -108.41753513 76.69725993 -103.16763306 67.28334045 C-94.68466025 52.07364463 -86.01252622 36.97997161 -77.15103149 21.9879303 C-73.06456257 15.06247897 -69.02142289 8.11175275 -65.04898071 1.12025452 C-61.24167071 2.38935785 -60.99017714 3.51470043 -59.11538696 6.98353577 C-58.55424194 8.00705139 -57.99309692 9.03056702 -57.41494751 10.08509827 C-56.81980347 11.18982483 -56.22465942 12.29455139 -55.61148071 13.43275452 C-54.3613711 15.71146856 -53.10872572 17.98879315 -51.85366821 20.26478577 C-51.22170532 21.41156799 -50.58974243 22.55835022 -49.93862915 23.73988342 C-47.13344733 28.75804201 -44.20456295 33.69712624 -41.23648071 38.62025452 C-40.72738159 39.46757141 -40.21828247 40.31488831 -39.6937561 41.18788147 C-37.63840896 44.85443687 -37.63840896 44.85443687 -35.04898071 48.12025452 C-34.51494629 47.15708313 -34.51494629 47.15708313 -33.97012329 46.17445374 C-27.35474894 34.25979742 -20.69265389 22.37652576 -13.79898071 10.62025452 C-13.25088745 9.6777887 -12.70279419 8.73532288 -12.13809204 7.76429749 C-11.62915405 6.90207581 -11.12021606 6.03985413 -10.59585571 5.15150452 C-10.15080688 4.3941803 -9.70575806 3.63685608 -9.2472229 2.85658264 C-6.84261126 -0.62785052 -3.94489285 -0.00322823 0 0 Z " fill="#F9F8F8" transform="translate(260.0489807128906,158.87974548339844)"/>
<path d="M0 0 C0.6875 1.6875 0.6875 1.6875 1 4 C-0.485 6.475 -0.485 6.475 -2 9 C30.01 9.33 62.02 9.66 95 10 C95 9.34 95 8.68 95 8 C95.99 8.495 95.99 8.495 97 9 C95 12 95 12 93.20778465 12.36914349 C92.4795682 12.36637811 91.75135174 12.36361273 91.00106812 12.36076355 C89.74744225 12.36694954 89.74744225 12.36694954 88.4684906 12.3732605 C87.09069176 12.35708176 87.09069176 12.35708176 85.68505859 12.34057617 C84.71916306 12.34101425 83.75326752 12.34145233 82.75810242 12.34190369 C79.55467754 12.339808 76.35177132 12.31644007 73.1484375 12.29296875 C70.9316944 12.28737557 68.71494759 12.28310416 66.49819946 12.28010559 C60.65537327 12.26863494 54.81276976 12.2391486 48.97003174 12.20599365 C43.01130181 12.1753406 37.052536 12.16161045 31.09375 12.14648438 C19.39573534 12.11428108 7.69788616 12.06305791 -4 12 C-5.12451172 8.26757812 -5.12451172 8.26757812 -4.00390625 5.859375 C-3.52824219 5.16328125 -3.05257812 4.4671875 -2.5625 3.75 C-2.08941406 3.04359375 -1.61632812 2.3371875 -1.12890625 1.609375 C-0.75636719 1.07828125 -0.38382812 0.5471875 0 0 Z " fill="#AAA6A7" transform="translate(98,329)"/>
<path d="M0 0 C0.84944624 0.24260512 0.84944624 0.24260512 1.71605301 0.49011135 C4.06585989 1.01470315 6.13800743 1.13845781 8.54315186 1.15821838 C9.90187157 1.17290161 9.90187157 1.17290161 11.28804016 1.18788147 C12.76726204 1.19651466 12.76726204 1.19651466 14.27636719 1.20532227 C15.84269142 1.22017166 15.84269142 1.22017166 17.44065857 1.23532104 C20.89270764 1.26691248 24.34477046 1.29168428 27.796875 1.31640625 C30.19012815 1.3369778 32.58337769 1.35797433 34.97662354 1.37937927 C41.27631705 1.43457911 47.57604323 1.48399767 53.87579346 1.53222656 C60.30394398 1.58245677 66.73204704 1.63813492 73.16015625 1.69335938 C85.77339668 1.80091544 98.38667764 1.90255111 111 2 C110.27633685 5.34430737 109.18284504 7.34262343 107 10 C107.33 8.35 107.66 6.7 108 5 C107.14842316 4.98969254 106.29684631 4.97938507 105.41946411 4.96876526 C97.21840723 4.86897175 89.01739222 4.76627498 80.81640816 4.66066074 C76.604673 4.60651421 72.39293126 4.55332399 68.18115234 4.50268555 C45.44512019 4.22844252 22.72540608 3.75324179 0 3 C0 2.01 0 1.02 0 0 Z " fill="#A39F9E" transform="translate(251,235)"/>
<path d="M0 0 C1.22644557 0.00138269 1.22644557 0.00138269 2.47766781 0.00279331 C3.88068645 0.00073132 3.88068645 0.00073132 5.31204891 -0.00137234 C6.34638561 0.00222294 7.38072231 0.00581821 8.44640255 0.00952244 C9.52919491 0.00937641 10.61198727 0.00923038 11.72759151 0.00907993 C15.32585778 0.0097796 18.92407301 0.0175745 22.52233028 0.02539158 C25.00954822 0.02725557 27.49676652 0.02867956 29.98398495 0.0296793 C35.87363594 0.03311433 41.76326794 0.04100506 47.65291113 0.05102879 C55.01367777 0.06328536 62.37444668 0.06866992 69.73522091 0.0742197 C82.87129802 0.08495968 96.00735986 0.10184693 109.14342403 0.12304783 C109.14342403 0.45304783 109.14342403 0.78304783 109.14342403 1.12304783 C108.59272873 1.1097657 108.04203342 1.09648357 107.47465038 1.08279896 C94.02673248 0.76542654 80.5811336 0.56172465 67.12966442 0.47795582 C60.6236895 0.43405596 54.12260839 0.35339557 47.61852169 0.18701267 C41.33428623 0.02763442 35.05596564 -0.03293995 28.7697897 -0.02667904 C26.37889486 -0.04134469 23.98793847 -0.09090286 21.59854031 -0.17674923 C10.61060611 -0.68813053 10.61060611 -0.68813053 0.14342403 2.12304783 C-5.20511088 7.11889482 -8.29191322 13.63082741 -11.03846455 20.32157612 C-11.30844131 20.91606178 -11.57841808 21.51054745 -11.85657597 22.12304783 C-12.18657597 22.12304783 -12.51657597 22.12304783 -12.85657597 22.12304783 C-11.98157597 14.37304783 -11.98157597 14.37304783 -10.85657597 12.12304783 C-9.86657597 12.12304783 -8.87657597 12.12304783 -7.85657597 12.12304783 C-7.85657597 10.47304783 -7.85657597 8.82304783 -7.85657597 7.12304783 C-7.21720097 6.87554783 -6.57782597 6.62804783 -5.91907597 6.37304783 C-3.67380884 5.31657098 -3.67380884 5.31657098 -3.16907597 3.06054783 C-3.06595097 2.42117283 -2.96282597 1.78179783 -2.85657597 1.12304783 C-1.85657597 0.12304783 -1.85657597 0.12304783 0 0 Z " fill="#969290" transform="translate(275.85657596588135,196.87695217132568)"/>
<path d="M0 0 C0.99 0 1.98 0 3 0 C2.67 0.99 2.34 1.98 2 3 C-34.63 3 -71.26 3 -109 3 C-109 2.67 -109 2.34 -109 2 C-73.03 2 -37.06 2 0 2 C0 1.34 0 0.68 0 0 Z " fill="#E7E2DF" transform="translate(384,194)"/>
<path d="M0 0 C3.36016893 1.12005631 4.69064913 2.37211797 7 5 C7 5.66 7 6.32 7 7 C31.75 7.33 56.5 7.66 82 8 C82 8.33 82 8.66 82 9 C57.25 9 32.5 9 7 9 C7 9.66 7 10.32 7 11 C6.34 11 5.68 11 5 11 C4.731875 10.236875 4.46375 9.47375 4.1875 8.6875 C3.19146475 5.99592628 3.19146475 5.99592628 1.375 4.375 C0.92125 3.92125 0.4675 3.4675 0 3 C0 2.01 0 1.02 0 0 Z " fill="#8A8685" transform="translate(258,267)"/>
<path d="M0 0 C3 1 3 1 4.1875 3.375 C5 6 5 6 5 9 C6.1960083 8.9592334 7.3920166 8.9184668 8.62426758 8.87646484 C13.05756603 8.72810227 17.49119245 8.59342093 21.92504883 8.46289062 C23.84476269 8.40445679 25.76436704 8.34230259 27.68383789 8.27636719 C30.44136619 8.18228765 33.1990103 8.10155238 35.95703125 8.0234375 C36.81649857 7.99124115 37.67596588 7.9590448 38.56147766 7.9258728 C39.36208115 7.90570099 40.16268463 7.88552917 40.98754883 7.86474609 C41.6914827 7.84253998 42.39541656 7.82033386 43.12068176 7.79745483 C45 8 45 8 48 10 C48 9.34 48 8.68 48 8 C47.34 8 46.68 8 46 8 C46.33 6.68 46.66 5.36 47 4 C49 7 49 7 49 11 C43.07348943 11.02469854 37.14700875 11.04285931 31.22045898 11.05493164 C29.20385211 11.05996382 27.1872489 11.06679014 25.1706543 11.07543945 C22.27391661 11.08755373 19.37722712 11.09323943 16.48046875 11.09765625 C15.57725388 11.10281754 14.674039 11.10797882 13.74345398 11.11329651 C12.4824865 11.11340981 12.4824865 11.11340981 11.19604492 11.11352539 C10.08684944 11.11685631 10.08684944 11.11685631 8.95524597 11.12025452 C7 11 7 11 4 10 C2.83203125 8.22265625 2.83203125 8.22265625 1.8125 6.0625 C1.46832031 5.35222656 1.12414062 4.64195312 0.76953125 3.91015625 C0 2 0 2 0 0 Z " fill="#A4A2A2" transform="translate(252,330)"/>
<path d="M0 0 C0.33 0.66 0.66 1.32 1 2 C0.06421005 4.35981813 -0.93347808 6.69631264 -2 9 C-2.66 9 -3.32 9 -4 9 C-4.33 10.65 -4.66 12.3 -5 14 C-4.34 14.33 -3.68 14.66 -3 15 C-2.0703125 17.0390625 -2.0703125 17.0390625 -1.125 19.625 C0.12915069 22.93311823 1.45099829 25.92946783 3.3125 28.9375 C4.1478125 30.4534375 4.1478125 30.4534375 5 32 C4.67 32.99 4.34 33.98 4 35 C2.99466333 33.37829621 1.99588093 31.75252763 1 30.125 C0.443125 29.22007812 -0.11375 28.31515625 -0.6875 27.3828125 C-2 25 -2 25 -2 23 C-4.475 22.01 -4.475 22.01 -7 21 C-6.979375 20.21625 -6.95875 19.4325 -6.9375 18.625 C-6.81315937 16.01885039 -6.81315937 16.01885039 -8 14 C-6.75717988 11.54961707 -5.47117661 9.226675 -4.0625 6.875 C-3.48338867 5.88693359 -3.48338867 5.88693359 -2.89257812 4.87890625 C-1.93553422 3.248387 -0.96867185 1.62363816 0 0 Z " fill="#A49E9E" transform="translate(232,195)"/>
<path d="M0 0 C0.8711861 2.41657682 1.16321205 3.58302606 0.21142578 6.01464844 C-0.2063916 6.7059082 -0.62420898 7.39716797 -1.0546875 8.109375 C-1.50457031 8.86347656 -1.95445312 9.61757812 -2.41796875 10.39453125 C-2.89878906 11.17183594 -3.37960937 11.94914063 -3.875 12.75 C-4.58462891 13.93916016 -4.58462891 13.93916016 -5.30859375 15.15234375 C-7.83744948 19.33828443 -7.83744948 19.33828443 -9 21 C-9.33 21 -9.66 21 -10 21 C-9.125 13.25 -9.125 13.25 -8 11 C-7.01 11 -6.02 11 -5 11 C-5 9.35 -5 7.7 -5 6 C-4.360625 5.7525 -3.72125 5.505 -3.0625 5.25 C-0.81258459 4.18437567 -0.81258459 4.18437567 -0.25 1.875 C-0.1675 1.25625 -0.085 0.6375 0 0 Z " fill="#B7B3AF" transform="translate(273,198)"/>
<path d="M0 0 C0.6875 1.6875 0.6875 1.6875 1 4 C-0.485 6.475 -0.485 6.475 -2 9 C3.28 9 8.56 9 14 9 C14 9.33 14 9.66 14 10 C7.62641289 10.96205088 1.44070471 11.10655578 -5 11 C-4.10950811 6.76313335 -2.20552339 3.69958761 0 0 Z " fill="#BCB7B7" transform="translate(98,329)"/>
<path d="M0 0 C0.99 0.33 1.98 0.66 3 1 C4.1875 4.0625 4.1875 4.0625 5 7 C3.8553125 6.938125 3.8553125 6.938125 2.6875 6.875 C-0.22718416 6.77919176 -0.22718416 6.77919176 -3 9 C-4.05104383 10.63495707 -5.05988318 12.29883624 -6 14 C-6 10.53725128 -5.13436881 8.92967989 -3.5625 5.875 C-3.11003906 4.98554688 -2.65757812 4.09609375 -2.19140625 3.1796875 C-1 1 -1 1 0 0 Z " fill="#ABA6A6" transform="translate(195,160)"/>
<path d="M0 0 C0.99 0 1.98 0 3 0 C2.67 0.99 2.34 1.98 2 3 C-11.86 3 -25.72 3 -40 3 C-40 2.67 -40 2.34 -40 2 C-26.8 2 -13.6 2 0 2 C0 1.34 0 0.68 0 0 Z " fill="#DBD6D5" transform="translate(384,194)"/>
<path d="M0 0 C0.50305664 0.15847412 1.00611328 0.31694824 1.52441406 0.48022461 C4.87476536 1.18366622 8.19970003 1.2351384 11.609375 1.31640625 C12.69958954 1.3475779 12.69958954 1.3475779 13.81182861 1.37937927 C16.12445991 1.44455512 18.43720093 1.5036104 20.75 1.5625 C22.32162575 1.60571566 23.89324056 1.64933092 25.46484375 1.69335938 C29.30978453 1.80020356 33.15483524 1.90156024 37 2 C37 2.33 37 2.66 37 3 C24.79 3 12.58 3 0 3 C0 2.01 0 1.02 0 0 Z " fill="#C8C4C2" transform="translate(251,235)"/>
<path d="M0 0 C0.33 0.66 0.66 1.32 1 2 C0.67 2.66 0.34 3.32 0 4 C3.3 4.33 6.6 4.66 10 5 C10.33 4.34 10.66 3.68 11 3 C11 4.32 11 5.64 11 7 C6.05 7 1.1 7 -4 7 C-3.34 5.02 -2.68 3.04 -2 1 C-1.34 0.67 -0.68 0.34 0 0 Z " fill="#A09797" transform="translate(161,297)"/>
<path d="M0 0 C5.57142857 5.14285714 5.57142857 5.14285714 6 9 C5.34 9 4.68 9 4 9 C3.34 8.01 2.68 7.02 2 6 C0.68 6 -0.64 6 -2 6 C-2 6.99 -2 7.98 -2 9 C-2.99 9.33 -3.98 9.66 -5 10 C-3.66511872 6.40608886 -2.03977277 3.24509304 0 0 Z " fill="#A29F9E" transform="translate(196,257)"/>
<path d="M0 0 C0.66 0 1.32 0 2 0 C2 0.66 2 1.32 2 2 C2.66 2 3.32 2 4 2 C6.31 6.95 8.62 11.9 11 17 C7.3392481 15.77974937 7.07660559 14.873509 5.3125 11.5625 C4.87550781 10.75941406 4.43851563 9.95632812 3.98828125 9.12890625 C3 7 3 7 3 5 C2.01 4.67 1.02 4.34 0 4 C0 2.68 0 1.36 0 0 Z " fill="#776C68" transform="translate(237,230)"/>
<path d="M0 0 C0.82638376 2.89234315 1 4.88742431 1 8 C-1.375 10.75 -1.375 10.75 -4 13 C-4.66 13 -5.32 13 -6 13 C-4.58707905 8.1725201 -2.57025846 4.2837641 0 0 Z " fill="#B5B2B3" transform="translate(142,252)"/>
<path d="M0 0 C3.91703377 1.30567792 4.31757187 2.80094602 6.25 6.375 C7.06210938 7.84066406 7.06210938 7.84066406 7.890625 9.3359375 C9 12 9 12 8 15 C6.66407203 12.6889639 5.33115569 10.37628245 4 8.0625 C3.6184375 7.40314453 3.236875 6.74378906 2.84375 6.06445312 C0 1.11328125 0 1.11328125 0 0 Z " fill="#7F6D6E" transform="translate(228,215)"/>
<path d="M0 0 C3.64907629 1.21635876 3.8828659 2.07242677 5.625 5.375 C6.05039062 6.16648437 6.47578125 6.95796875 6.9140625 7.7734375 C8 10 8 10 9 13 C6 12 6 12 4.39453125 9.27734375 C3.87246094 8.17519531 3.35039062 7.07304687 2.8125 5.9375 C2.28269531 4.83277344 1.75289062 3.72804688 1.20703125 2.58984375 C0.80871094 1.73519531 0.41039062 0.88054687 0 0 Z " fill="#655E5E" transform="translate(250,253)"/>
<path d="M0 0 C0.66 0 1.32 0 2 0 C2 0.66 2 1.32 2 2 C2.99 2.33 3.98 2.66 5 3 C5.73046875 5.06640625 5.73046875 5.06640625 6.1875 7.5625 C6.34605469 8.38878906 6.50460938 9.21507812 6.66796875 10.06640625 C6.77753906 10.70449219 6.88710937 11.34257812 7 12 C0 3.55172414 0 3.55172414 0 0 Z " fill="#928F90" transform="translate(209,257)"/>
<path d="M0 0 C0.99 0.33 1.98 0.66 3 1 C0.525 5.455 0.525 5.455 -2 10 C-2.33 10 -2.66 10 -3 10 C-3 8.02 -3 6.04 -3 4 C-2.01 3.67 -1.02 3.34 0 3 C0 2.01 0 1.02 0 0 Z " fill="#AFA6AC" transform="translate(192,240)"/>
<path d="M0 0 C0.99 0.33 1.98 0.66 3 1 C3.94921875 3.06640625 3.94921875 3.06640625 4.6875 5.5625 C4.93886719 6.38878906 5.19023437 7.21507812 5.44921875 8.06640625 C5.63097656 8.70449219 5.81273437 9.34257812 6 10 C5.34 10 4.68 10 4 10 C3.32845067 8.71086513 2.66291141 7.41859796 2 6.125 C1.62875 5.40570313 1.2575 4.68640625 0.875 3.9453125 C0 2 0 2 0 0 Z " fill="#949091" transform="translate(252,330)"/>
<path d="M0 0 C4.29 0.66 8.58 1.32 13 2 C13 2.33 13 2.66 13 3 C8.71 3 4.42 3 0 3 C0 2.01 0 1.02 0 0 Z " fill="#AFABAA" transform="translate(251,235)"/>
<path d="M0 0 C0.6875 1.75 0.6875 1.75 1 4 C-0.3125 6.25 -0.3125 6.25 -2 8 C-2.66 8 -3.32 8 -4 8 C-2.87548273 5.0280615 -1.77706209 2.66559313 0 0 Z " fill="#908E8C" transform="translate(105,317)"/>
<path d="M0 0 C0.6875 1.6875 0.6875 1.6875 1 4 C-0.3125 6.75 -0.3125 6.75 -2 9 C-2.66 9 -3.32 9 -4 9 C-2.94124926 5.59687262 -1.99097846 2.98646769 0 0 Z " fill="#A3A1A1" transform="translate(172,200)"/>
<path d="M0 0 C3 1 3 1 5 4 C4.67 4.99 4.34 5.98 4 7 C2 5.1875 2 5.1875 0 3 C0 2.01 0 1.02 0 0 Z " fill="#8A8483" transform="translate(258,267)"/>
<path d="M0 0 C0.66 0 1.32 0 2 0 C2 0.66 2 1.32 2 2 C2.66 2 3.32 2 4 2 C4.33 3.32 4.66 4.64 5 6 C2.525 5.01 2.525 5.01 0 4 C0 2.68 0 1.36 0 0 Z " fill="#AEA2A1" transform="translate(237,230)"/>
</svg>
